<?xml version="1.0" encoding="UTF-8" standalone="no"?>
<!-- Created with Inkscape (http://www.inkscape.org/) -->

<svg
   xmlns:dc="http://purl.org/dc/elements/1.1/"
   xmlns:cc="http://creativecommons.org/ns#"
   xmlns:rdf="http://www.w3.org/1999/02/22-rdf-syntax-ns#"
   xmlns:svg="http://www.w3.org/2000/svg"
   xmlns="http://www.w3.org/2000/svg"
   version="1.1"
   width="512"
   height="512"
   id="svg2">
  <defs
     id="defs4" />
  <metadata
     id="metadata7">
    <rdf:RDF>
      <cc:Work
         rdf:about="">
        <dc:format>image/svg+xml</dc:format>
        <dc:type
           rdf:resource="http://purl.org/dc/dcmitype/StillImage" />
        <dc:title></dc:title>
      </cc:Work>
    </rdf:RDF>
  </metadata>
  <g
     transform="translate(0,-540.36215)"
     id="layer1">
    <path
       d="m 345.71429,209.85715 a 109.28571,115 0 1 1 -218.57143,0 109.28571,115 0 1 1 218.57143,0 z"
       transform="matrix(1.4640523,0,0,1.3913043,-90.143798,504.38698)"
       id="path3787"
       style="fill:#feffff;fill-opacity:1;stroke:none" />
    <path
       d="m 437.14285,161.28572 a 57.857143,57.857143 0 1 1 -115.71429,0 57.857143,57.857143 0 1 1 115.71429,0 z"
       transform="matrix(1.5555555,0,0,1.5555555,-239.99997,451.47326)"
       id="path3789"
       style="fill:#feffff;fill-opacity:1;stroke:none" />
    <path
       d="m 437.14285,161.28572 a 57.857143,57.857143 0 1 1 -115.71429,0 57.857143,57.857143 0 1 1 115.71429,0 z"
       transform="matrix(1.5555555,0,0,1.5555555,-427.99997,451.47326)"
       id="path3789-8"
       style="fill:#feffff;fill-opacity:1;stroke:none" />
    <path
       d="m 437.14285,161.28572 a 57.857143,57.857143 0 1 1 -115.71429,0 57.857143,57.857143 0 1 1 115.71429,0 z"
       transform="matrix(1.5555555,0,0,1.5555555,-239.99997,639.47326)"
       id="path3789-2"
       style="fill:#feffff;fill-opacity:1;stroke:none" />
    <path
       d="m 437.14285,161.28572 a 57.857143,57.857143 0 1 1 -115.71429,0 57.857143,57.857143 0 1 1 115.71429,0 z"
       transform="matrix(1.5555555,0,0,1.5555555,-427.99997,639.47326)"
       id="path3789-2-5"
       style="fill:#feffff;fill-opacity:1;stroke:none" />
  </g>
</svg>
