<?xml version="1.0" encoding="UTF-8" standalone="no"?>
<!-- Created with Inkscape (http://www.inkscape.org/) -->

<svg
   xmlns:dc="http://purl.org/dc/elements/1.1/"
   xmlns:cc="http://creativecommons.org/ns#"
   xmlns:rdf="http://www.w3.org/1999/02/22-rdf-syntax-ns#"
   xmlns:svg="http://www.w3.org/2000/svg"
   xmlns="http://www.w3.org/2000/svg"
   xmlns:sodipodi="http://sodipodi.sourceforge.net/DTD/sodipodi-0.dtd"
   xmlns:inkscape="http://www.inkscape.org/namespaces/inkscape"
   width="512"
   height="512"
   id="svg2"
   version="1.1"
   inkscape:version="0.48.4 r"
   sodipodi:docname="Logo.svg">
  <defs
     id="defs4" />
  <sodipodi:namedview
     id="base"
     pagecolor="#ffffff"
     bordercolor="#666666"
     borderopacity="1.0"
     inkscape:pageopacity="0.0"
     inkscape:pageshadow="2"
     inkscape:zoom="0.7"
     inkscape:cx="127.25271"
     inkscape:cy="232.42143"
     inkscape:document-units="px"
     inkscape:current-layer="layer1"
     showgrid="false"
     inkscape:showpageshadow="false"
     showborder="true"
     inkscape:window-width="1366"
     inkscape:window-height="706"
     inkscape:window-x="-8"
     inkscape:window-y="-8"
     inkscape:window-maximized="1" />
  <metadata
     id="metadata7">
    <rdf:RDF>
      <cc:Work
         rdf:about="">
        <dc:format>image/svg+xml</dc:format>
        <dc:type
           rdf:resource="http://purl.org/dc/dcmitype/StillImage" />
        <dc:title></dc:title>
      </cc:Work>
    </rdf:RDF>
  </metadata>
  <g
     inkscape:label="Layer 1"
     inkscape:groupmode="layer"
     id="layer1"
     transform="translate(0,-540.36215)">
    <rect
       style="fill:#aa66cc;fill-opacity:1;stroke:none"
       id="rect2985"
       width="512"
       height="512"
       x="0"
       y="540.36218"
       ry="0" />
    <path
       sodipodi:type="arc"
       style="fill:#feffff;fill-opacity:1;stroke:none"
       id="path3787"
       sodipodi:cx="236.42857"
       sodipodi:cy="209.85715"
       sodipodi:rx="109.28571"
       sodipodi:ry="115"
       d="m 345.71429,209.85715 a 109.28571,115 0 1 1 -218.57143,0 109.28571,115 0 1 1 218.57143,0 z"
       transform="matrix(1.4640523,0,0,1.3913043,-90.143798,504.38698)" />
    <path
       sodipodi:type="arc"
       style="fill:#feffff;fill-opacity:1;stroke:none"
       id="path3789"
       sodipodi:cx="379.28571"
       sodipodi:cy="161.28572"
       sodipodi:rx="57.857143"
       sodipodi:ry="57.857143"
       d="m 437.14285,161.28572 a 57.857143,57.857143 0 1 1 -115.71429,0 57.857143,57.857143 0 1 1 115.71429,0 z"
       transform="matrix(1.5555555,0,0,1.5555555,-239.99997,451.47326)" />
    <path
       sodipodi:type="arc"
       style="fill:#feffff;fill-opacity:1;stroke:none"
       id="path3789-8"
       sodipodi:cx="379.28571"
       sodipodi:cy="161.28572"
       sodipodi:rx="57.857143"
       sodipodi:ry="57.857143"
       d="m 437.14285,161.28572 a 57.857143,57.857143 0 1 1 -115.71429,0 57.857143,57.857143 0 1 1 115.71429,0 z"
       transform="matrix(1.5555555,0,0,1.5555555,-427.99997,451.47326)" />
    <path
       sodipodi:type="arc"
       style="fill:#feffff;fill-opacity:1;stroke:none"
       id="path3789-2"
       sodipodi:cx="379.28571"
       sodipodi:cy="161.28572"
       sodipodi:rx="57.857143"
       sodipodi:ry="57.857143"
       d="m 437.14285,161.28572 a 57.857143,57.857143 0 1 1 -115.71429,0 57.857143,57.857143 0 1 1 115.71429,0 z"
       transform="matrix(1.5555555,0,0,1.5555555,-239.99997,639.47326)" />
    <path
       sodipodi:type="arc"
       style="fill:#feffff;fill-opacity:1;stroke:none"
       id="path3789-2-5"
       sodipodi:cx="379.28571"
       sodipodi:cy="161.28572"
       sodipodi:rx="57.857143"
       sodipodi:ry="57.857143"
       d="m 437.14285,161.28572 a 57.857143,57.857143 0 1 1 -115.71429,0 57.857143,57.857143 0 1 1 115.71429,0 z"
       transform="matrix(1.5555555,0,0,1.5555555,-427.99997,639.47326)" />
    <text
       xml:space="preserve"
       style="font-size:252.13308716000000000px;font-style:normal;font-variant:normal;font-weight:bold;font-stretch:normal;line-height:125%;letter-spacing:0px;word-spacing:0px;fill:#aa66cc;fill-opacity:1;stroke:none;font-family:Segoe UI;-inkscape-font-specification:Segoe UI Bold"
       x="156.40251"
       y="884.63336"
       id="text3809"
       sodipodi:linespacing="125%"><tspan
         sodipodi:role="line"
         id="tspan3811"
         x="156.40251"
         y="884.63336">N</tspan></text>
  </g>
</svg>
